PathFileType	4	(X/Y/Z)	 2.6Hz3min.trc
DataRate	CameraRate	NumFrames	NumMarkers	Units	OrigDataRate	OrigDataStartFrame	OrigNumFrames
200	200	9	35	m	200	501	1000
Frame#	Time	C7			LSH			RSH			MAN			RASI			LASI			HIPR			HIPL			RPSI			LPSI			COX			RTHI1			RTHI2			RTHI3			RTHI4			RSHA1			RSHA2			RSHA3			RSHA4			RHEEL			RMET5			RMET1			RTOE			LTHI1			LTHI2			LTHI3			LTHI4			LSHA1			LSHA2			LSHA3			LSHA4			LHEEL			LMET5			LMET1			LTOE			
		X1	Y1	Z1	X2	Y2	Z2	X3	Y3	Z3	X4	Y4	Z4	X5	Y5	Z5	X6	Y6	Z6	X7	Y7	Z7	X8	Y8	Z8	X9	Y9	Z9	X10	Y10	Z10	X11	Y11	Z11	X12	Y12	Z12	X13	Y13	Z13	X14	Y14	Z14	X15	Y15	Z15	X16	Y16	Z16	X17	Y17	Z17	X18	Y18	Z18	X19	Y19	Z19	X20	Y20	Z20	X21	Y21	Z21	X22	Y22	Z22	X23	Y23	Z23	X24	Y24	Z24	X25	Y25	Z25	X26	Y26	Z26	X27	Y27	Z27	X28	Y28	Z28	X29	Y29	Z29	X30	Y30	Z30	X31	Y31	Z31	X32	Y32	Z32	X33	Y33	Z33	X34	Y34	Z34	X35	Y35	Z35	
501	2.5050	-0.321542	1.345010	-0.585425	-0.240414	1.331748	-0.762349	-0.256949	1.299012	-0.406257	-0.186939	1.298845	-0.582356	-0.165065	0.902233	-0.473218	-0.164050	0.901472	-0.697186	-0.241270	0.936663	-0.438321	-0.219879	0.945652	-0.730022	-0.334033	0.929176	-0.534515	-0.330870	0.929810	-0.637939	-0.331168	0.940125	-0.589302	-0.264635	0.701253	-0.419306	-0.239723	0.647205	-0.414694	-0.180890	0.670448	-0.400870	-0.198706	0.729669	-0.402391	-0.262988	0.320055	-0.392403	-0.282681	0.282273	-0.399901	-0.225928	0.261617	-0.406950	-0.210909	0.299069	-0.404216	-0.409492	0.080560	-0.449096	-0.265395	0.022649	-0.390724	-0.225882	0.035443	-0.470867	-0.200169	0.027582	-0.474926	-0.244796	0.675487	-0.764087	-0.211208	0.623854	-0.764911	-0.153588	0.654479	-0.762639	-0.180198	0.708081	-0.762389	-0.300146	0.293960	-0.764916	-0.322548	0.260483	-0.761776	-0.266764	0.231598	-0.760251	-0.250682	0.272591	-0.764349	-0.441971	0.071108	-0.715991	-0.296129	0.027310	-0.777576	-0.257471	0.036930	-0.704884	-0.232172	0.027059	-0.705108	
502	2.5100	-0.321457	1.344770	-0.585352	-0.240810	1.330565	-0.762474	-0.257172	1.297927	-0.406293	-0.186956	1.298046	-0.582394	-0.164853	0.902239	-0.473226	-0.163812	0.900745	-0.696956	-0.240901	0.937400	-0.438655	-0.219454	0.945773	-0.729934	-0.333791	0.929520	-0.534675	-0.330575	0.929908	-0.638172	-0.330883	0.940207	-0.589509	-0.265514	0.701313	-0.419708	-0.240910	0.647247	-0.414900	-0.182006	0.670289	-0.400865	-0.199600	0.729510	-0.402315	-0.263916	0.319781	-0.393304	-0.283456	0.281988	-0.400807	-0.226658	0.261474	-0.407413	-0.211735	0.298961	-0.404645	-0.409705	0.079993	-0.450217	-0.265674	0.022769	-0.391012	-0.225783	0.035405	-0.470979	-0.200026	0.027587	-0.474843	-0.246202	0.674706	-0.763225	-0.212739	0.622989	-0.764081	-0.155022	0.653487	-0.762603	-0.181519	0.707157	-0.762396	-0.301036	0.293247	-0.763267	-0.323367	0.259762	-0.760044	-0.267550	0.230961	-0.758904	-0.251540	0.271973	-0.763032	-0.442235	0.070016	-0.714049	-0.296555	0.027462	-0.776966	-0.257291	0.036865	-0.704648	-0.232013	0.027053	-0.705154	
503	2.5150	-0.321404	1.344975	-0.585287	-0.241229	1.330115	-0.762553	-0.257392	1.297608	-0.406366	-0.186977	1.297871	-0.582485	-0.164542	0.902834	-0.473426	-0.163590	0.900612	-0.696677	-0.240187	0.938883	-0.439027	-0.218797	0.946656	-0.729780	-0.333493	0.930390	-0.534779	-0.330247	0.930504	-0.638373	-0.330566	0.940784	-0.589673	-0.266136	0.701916	-0.420008	-0.241825	0.647794	-0.415088	-0.182846	0.670617	-0.400900	-0.200191	0.729848	-0.402277	-0.264863	0.320056	-0.394276	-0.284211	0.282248	-0.401723	-0.227381	0.261862	-0.407834	-0.212564	0.299412	-0.405080	-0.409742	0.079868	-0.451228	-0.265919	0.022922	-0.391332	-0.225675	0.035373	-0.471087	-0.199881	0.027588	-0.474786	-0.247409	0.674481	-0.762337	-0.214099	0.622665	-0.763139	-0.156279	0.652998	-0.762356	-0.182627	0.706755	-0.762268	-0.301669	0.293215	-0.761655	-0.323973	0.259723	-0.758376	-0.268152	0.230946	-0.757571	-0.252164	0.271960	-0.761701	-0.442283	0.069497	-0.712405	-0.296886	0.027628	-0.776363	-0.257065	0.036796	-0.704415	-0.231855	0.027043	-0.705176	
504	2.5200	-0.321389	1.345622	-0.585237	-0.241672	1.330396	-0.762623	-0.257602	1.298022	-0.406443	-0.187019	1.298333	-0.582616	-0.164137	0.903973	-0.473774	-0.163388	0.901083	-0.696392	-0.239194	0.940940	-0.439375	-0.217952	0.948106	-0.729602	-0.333145	0.931738	-0.534814	-0.329897	0.931559	-0.638516	-0.330227	0.941820	-0.589789	-0.266481	0.703031	-0.420205	-0.242423	0.648844	-0.415270	-0.183378	0.671425	-0.400980	-0.200475	0.730691	-0.402274	-0.265816	0.320836	-0.395267	-0.284923	0.283003	-0.402575	-0.228078	0.262753	-0.408196	-0.213376	0.300359	-0.405496	-0.409618	0.080165	-0.452097	-0.266115	0.023096	-0.391670	-0.225565	0.035352	-0.471186	-0.199747	0.027584	-0.474757	-0.248369	0.674878	-0.761455	-0.215245	0.622945	-0.762126	-0.157315	0.653061	-0.761889	-0.183473	0.706924	-0.761979	-0.302091	0.293778	-0.760158	-0.324389	0.260299	-0.756865	-0.268576	0.231495	-0.756284	-0.252588	0.272504	-0.760398	-0.442144	0.069545	-0.711125	-0.297110	0.027797	-0.775799	-0.256813	0.036722	-0.704195	-0.231711	0.027029	-0.705169	
505	2.5250	-0.321410	1.346697	-0.585206	-0.242119	1.331384	-0.762709	-0.257791	1.299121	-0.406518	-0.187099	1.299441	-0.582768	-0.163653	0.905629	-0.474212	-0.163200	0.902151	-0.696142	-0.238007	0.943428	-0.439662	-0.216988	0.949947	-0.729432	-0.332753	0.933534	-0.534778	-0.329537	0.933064	-0.638590	-0.329861	0.943315	-0.589844	-0.266569	0.704604	-0.420290	-0.242727	0.650347	-0.415411	-0.183594	0.672708	-0.401105	-0.200473	0.732018	-0.402299	-0.266745	0.322088	-0.396195	-0.285600	0.284204	-0.403323	-0.228747	0.264098	-0.408484	-0.214167	0.301761	-0.405863	-0.409342	0.080873	-0.452783	-0.266251	0.023287	-0.392007	-0.225459	0.035339	-0.471272	-0.199628	0.027577	-0.474752	-0.249036	0.675903	-0.760608	-0.216120	0.623838	-0.761087	-0.158075	0.653710	-0.761207	-0.184011	0.707688	-0.761520	-0.302345	0.294861	-0.758835	-0.324648	0.261385	-0.755555	-0.268838	0.232559	-0.755084	-0.252842	0.273575	-0.759163	-0.441841	0.070132	-0.710254	-0.297220	0.027971	-0.775292	-0.256574	0.036655	-0.704002	-0.231589	0.027018	-0.705143	
506	2.5300	-0.321475	1.348235	-0.585196	-0.242588	1.333060	-0.762809	-0.257982	1.300883	-0.406557	-0.187252	1.301189	-0.582915	-0.163105	0.907757	-0.474682	-0.163013	0.903789	-0.695958	-0.236717	0.946228	-0.439842	-0.215993	0.952048	-0.729286	-0.332319	0.935762	-0.534664	-0.329166	0.935001	-0.638583	-0.329467	0.945255	-0.589830	-0.266439	0.706597	-0.420265	-0.242763	0.652286	-0.415496	-0.183529	0.674437	-0.401274	-0.200236	0.733793	-0.402350	-0.267631	0.323756	-0.397004	-0.286253	0.285813	-0.403887	-0.229375	0.265854	-0.408694	-0.214926	0.303577	-0.406150	-0.408920	0.081961	-0.453267	-0.266317	0.023491	-0.392331	-0.225345	0.035325	-0.471358	-0.199530	0.027569	-0.474770	-0.249366	0.677534	-0.759835	-0.216666	0.625335	-0.760072	-0.158507	0.654952	-0.760324	-0.184210	0.709047	-0.760890	-0.302482	0.296388	-0.757734	-0.324781	0.262903	-0.754501	-0.268956	0.234094	-0.753999	-0.252970	0.275126	-0.758024	-0.441387	0.071234	-0.709793	-0.297208	0.028155	-0.774852	-0.256357	0.036596	-0.703840	-0.231494	0.027008	-0.705095	
507	2.5350	-0.321581	1.350225	-0.585204	-0.243026	1.335386	-0.762922	-0.258179	1.303282	-0.406535	-0.187368	1.303548	-0.583084	-0.162496	0.910300	-0.475141	-0.162809	0.905963	-0.695851	-0.235394	0.949263	-0.439894	-0.215052	0.954361	-0.729165	-0.331839	0.938398	-0.534463	-0.328781	0.937366	-0.638490	-0.329044	0.947620	-0.589733	-0.266143	0.708977	-0.420144	-0.242591	0.654613	-0.415526	-0.183256	0.676591	-0.401470	-0.199823	0.735988	-0.402416	-0.268461	0.325754	-0.397622	-0.286878	0.287781	-0.404276	-0.229950	0.267972	-0.408822	-0.215637	0.305755	-0.406342	-0.408356	0.083410	-0.453517	-0.266311	0.023706	-0.392622	-0.225232	0.035310	-0.471440	-0.199458	0.027563	-0.474807	-0.249331	0.679717	-0.759176	-0.216837	0.627387	-0.759129	-0.158574	0.656772	-0.759272	-0.184051	0.710976	-0.760109	-0.302543	0.298316	-0.756886	-0.324819	0.264789	-0.753729	-0.268955	0.236055	-0.753056	-0.253008	0.277112	-0.757011	-0.440796	0.072789	-0.709719	-0.297082	0.028354	-0.774481	-0.256166	0.036553	-0.703717	-0.231424	0.027000	-0.705033	
508	2.5400	-0.321720	1.352647	-0.585227	-0.243445	1.338324	-0.763033	-0.258317	1.306231	-0.406553	-0.187486	1.306440	-0.583257	-0.161842	0.913209	-0.475547	-0.162571	0.908634	-0.695818	-0.234130	0.952477	-0.439854	-0.214241	0.956894	-0.729065	-0.331312	0.941413	-0.534162	-0.328379	0.940145	-0.638299	-0.328589	0.950389	-0.589543	-0.265744	0.711727	-0.419935	-0.242294	0.657310	-0.415492	-0.182854	0.679130	-0.401676	-0.199295	0.738569	-0.402489	-0.269222	0.328036	-0.398022	-0.287452	0.290007	-0.404546	-0.230455	0.270409	-0.408866	-0.216279	0.308248	-0.406421	-0.407651	0.085191	-0.453532	-0.266231	0.023940	-0.392866	-0.225127	0.035298	-0.471517	-0.199415	0.027557	-0.474859	-0.248923	0.682392	-0.758666	-0.216617	0.629947	-0.758297	-0.158268	0.659123	-0.758081	-0.183535	0.713424	-0.759211	-0.302577	0.300595	-0.756307	-0.324797	0.267003	-0.753265	-0.268869	0.238393	-0.752271	-0.252995	0.279495	-0.756143	-0.440072	0.074740	-0.709986	-0.296853	0.028573	-0.774177	-0.256001	0.036526	-0.703633	-0.231377	0.026993	-0.704964	
509	2.5450	-0.321871	1.355479	-0.585251	-0.243829	1.341814	-0.763135	-0.258401	1.309676	-0.406641	-0.187596	1.309806	-0.583432	-0.161151	0.916443	-0.475875	-0.162291	0.911765	-0.695840	-0.232972	0.955875	-0.439733	-0.213612	0.959691	-0.728973	-0.330729	0.944775	-0.533771	-0.327950	0.943322	-0.638012	-0.328099	0.953537	-0.589253	-0.265299	0.714827	-0.419650	-0.241941	0.660348	-0.415406	-0.182380	0.682021	-0.401867	-0.198702	0.741501	-0.402558	-0.269898	0.330591	-0.398172	-0.287982	0.292490	-0.404736	-0.230881	0.273131	-0.408822	-0.216854	0.311044	-0.406379	-0.406803	0.087272	-0.453313	-0.266073	0.024201	-0.393057	-0.225032	0.035286	-0.471582	-0.199400	0.027554	-0.474925	-0.248173	0.685489	-0.758326	-0.216027	0.632948	-0.757605	-0.157614	0.661960	-0.756801	-0.182702	0.716336	-0.758236	-0.302619	0.303194	-0.755996	-0.324755	0.269512	-0.753096	-0.268734	0.241088	-0.751669	-0.252965	0.282244	-0.755444	-0.439217	0.077031	-0.710535	-0.296535	0.028812	-0.773928	-0.255858	0.036515	-0.703587	-0.231351	0.026989	-0.704893	
